<?xml version="1.0" encoding="utf-8"?>
<!-- Generator: Adobe Illustrator 15.0.2, SVG Export Plug-In . SVG Version: 6.00 Build 0)  -->
<!DOCTYPE svg PUBLIC "-//W3C//DTD SVG 1.1//EN" "http://www.w3.org/Graphics/SVG/1.1/DTD/svg11.dtd">
<svg version="1.1" id="Layer_1" xmlns="http://www.w3.org/2000/svg" xmlns:xlink="http://www.w3.org/1999/xlink" x="0px" y="0px"
	 width="441px" height="93px" viewBox="0 0 441 93" enable-background="new 0 0 441 93" xml:space="preserve">
<g>
	<defs>
		<rect id="SVGID_1_" width="441" height="93"/>
	</defs>
	<clipPath id="SVGID_2_">
		<use xlink:href="#SVGID_1_"  overflow="visible"/>
	</clipPath>
	<path clip-path="url(#SVGID_2_)" fill-rule="evenodd" clip-rule="evenodd" d="M417.973,34.538c-4.239,1.422-7.173,8.1-8.173,12.52
		c6.047-2.043,11.694-4.49,13.016-11.298c-0.891-1.975-3.583-1.644-4.843-1.22V34.538z M242.735,47.058
		c5.848-2.344,12.193-4.19,12.71-11.91C248.318,32.698,244.098,40.68,242.735,47.058 M389.221,8.579
		c-4.766,8.53-7.905,18.7-10.593,29.32c1.86-1.13,3.15-3.27,4.54-5.19c4.526-6.26,9.874-14.52,9.38-24.12
		c-0.618-0.47-2.708-0.47-3.327,0V8.579z M379.233,62.016c10.744,0.152,14.934-6.308,20.883-10.992
		c2.431-9.28,8.47-21.23,18.16-22.902c6.76-1.167,11.8,1.868,10.899,8.855c-1.35,10.55-13.879,12.83-20.879,17.71
		c0.009,3.149,0.949,5.35,2.119,7.32c13.3,2.76,20.71-7.16,28.15-11.301c1.41,0.92,1.47,3.2,1.52,5.5
		c-3.539,3.931-11.63,9.38-19.67,11.601c-6.66,1.84-15.28,2.7-18.16-3.062c-0.859-1.729-0.54-3.639-1.51-5.5
		c-7.57,4.441-16.58,12.531-28.14,8.241c-2-2.05-2.87-5.25-3.931-8.25c-5.779,4.23-12.91,11.9-23,7.94
		c-3.189,1.31-9.76,3.109-11.5-0.311c-0.979-1.95,0.561-7.06,3.33-7.64c2.181-0.46,3.74,1.34,6.061,1.519
		c5.899-4.269,8.62-14.519,6.66-24.729c-2.432-2.07-6.08,1.29-8.171,3.36c-1.56,1.54-3.609,3.79-5.14,6.1
		c-8.06,12.13-11.27,32.109-16.95,47.019c-6.51,1.921-8.819-1.858-6.96-7.938c1.63-5.33,4.8-11.65,7.271-18.32
		c3.7-10.01,6.13-19.13,8.779-29.32c-6.5,7.42-12.96,17.68-26.939,15.57c-2.67,5.96-8.521,15.04-17.25,16.18
		c-7.68,1-13.76-2.1-14.521-9.159c-6.859,3.02-18.569,11.6-29.051,9.77c-3.479-0.61-5.108-3.14-6.959-6.11
		c-1.45-7.3-1.09-14.921,1.51-21.069c2.67-6.31,9.011-12.4,13.62-13.74c8.141-2.37,14.37,1.91,12.11,10.38
		c-2.26,8.5-12.41,11.77-19.97,14.959c-0.24,3.19,0.149,5.75,1.21,7.63c10.8,4.38,19.859-5.029,26.93-10.081
		c2.76-12.079,7.7-21.958,22.7-21.679c0.41,1.7,0.27,3.47,0,5.19c-8.54,0.65-15.5,9.62-14.22,20.149
		c0.43,3.521,1.909,7.44,5.75,7.63c7.239,0.36,10.21-9.041,11.8-14.96c-2.471-4.06-0.9-11.52,1.22-14.66c1.7-0.38,4.68-0.54,6.35,0
		c0.74,3.57,0.04,9.73,0.301,12.82c6.01,2.209,11.17-2.19,14.529-5.19c5.851-5.24,10.32-14.34,14.53-19.85
		c2.05,0.17,4.8-0.36,6.36,0.31c-1.511,6.62-2.761,13.5-4.54,19.85c4.899-3.25,10.239-15.83,19.979-11
		c1.311,0.65,3.13,2.72,3.63,3.97c3.7,9.05-1.72,21.95-6.96,28.089c7.681,0.4,13.03-7.68,17.86-12.22
		c1.2-11.14,3.71-20.55,7.87-30.54c2.81-6.76,6.71-16.89,13.62-18.33c6.12-1.28,9.021,5.83,8.479,11.3
		c-0.779,7.79-5.35,14.89-9.38,20.76c-1.88,2.74-4.189,5.78-6.35,8.55c-3.34,4.26-8.75,8.64-6.66,17.1
		c0.37,1.49,1.5,2.16,2.72,3.351L379.233,62.016z"/>
</g>
<g>
	<defs>
		<path id="SVGID_3_" d="M255.445,35.147c-0.517,7.72-6.862,9.566-12.71,11.911C244.098,40.679,248.318,32.697,255.445,35.147
			 M422.815,35.759c-1.321,6.809-6.969,9.256-13.016,11.299c1-4.42,3.935-11.098,8.173-12.52v0.002
			C419.233,34.115,421.924,33.785,422.815,35.759 M392.548,8.588c0.494,9.6-4.854,17.861-9.38,24.12
			c-1.39,1.921-2.68,4.061-4.54,5.19c2.688-10.62,5.827-20.79,10.592-29.32v0.01C389.84,8.118,391.929,8.118,392.548,8.588
			 M390.526,0.826c-6.91,1.44-10.812,11.571-13.62,18.33c-4.16,9.991-6.669,19.4-7.87,30.542c-4.83,4.539-10.18,12.619-17.86,12.219
			c5.24-6.14,10.66-19.04,6.96-28.09c-0.5-1.25-2.318-3.319-3.631-3.97c-9.739-4.829-15.079,7.751-19.979,11.001
			c1.779-6.351,3.029-13.23,4.54-19.851c-0.985-0.423-2.447-0.367-3.906-0.311c-0.852,0.032-1.7,0.065-2.454,0.002
			c-4.21,5.509-8.68,14.609-14.53,19.849c-3.359,3.001-8.52,7.4-14.529,5.19c-0.262-3.089,0.439-9.25-0.301-12.819
			c-1.67-0.54-4.648-0.381-6.35,0c-2.12,3.14-3.691,10.599-1.22,14.659c-1.589,5.92-4.561,15.321-11.8,14.96
			c-3.841-0.189-5.32-4.11-5.75-7.629c-1.28-10.53,5.68-19.501,14.22-20.15c0.27-1.72,0.41-3.491,0-5.191
			c-14.999-0.28-19.94,9.601-22.7,21.68c-7.07,5.051-16.13,14.46-26.93,10.08c-1.061-1.88-1.449-4.439-1.209-7.63
			c7.559-3.189,17.709-6.46,19.969-14.96c2.26-8.47-3.97-12.75-12.11-10.379c-4.608,1.34-10.951,7.43-13.62,13.739
			c-2.6,6.15-2.96,13.77-1.51,21.07c1.85,2.971,3.48,5.5,6.96,6.11c10.481,1.831,22.191-6.75,29.05-9.77
			c0.761,7.06,6.84,10.159,14.521,9.159c8.729-1.14,14.58-10.22,17.25-16.18c13.979,2.11,20.438-8.15,26.938-15.569
			c-2.647,10.189-5.078,19.31-8.777,29.32c-2.473,6.67-5.643,12.988-7.271,18.318c-1.859,6.081,0.45,9.86,6.96,7.94
			c5.681-14.91,8.891-34.889,16.95-47.02c1.53-2.31,3.58-4.56,5.14-6.1c2.091-2.07,5.74-5.429,8.171-3.36
			c1.959,10.211-0.762,20.459-6.66,24.73c-2.32-0.179-3.881-1.979-6.061-1.52c-2.77,0.579-4.31,5.689-3.331,7.64
			c1.741,3.42,8.312,1.621,11.501,0.311c10.09,3.959,17.221-3.711,23-7.94c1.061,3,1.932,6.2,3.931,8.25
			c11.56,4.29,20.569-3.801,28.14-8.24c0.97,1.861,0.65,3.77,1.51,5.5c2.88,5.761,11.5,4.901,18.16,3.06
			c8.04-2.22,16.13-7.669,19.67-11.6c-0.05-2.299-0.109-4.58-1.52-5.5c-7.44,4.14-14.852,14.061-28.15,11.301
			c-1.17-1.971-2.11-4.171-2.12-7.321c7-4.88,19.53-7.158,20.88-17.708c0.9-6.988-4.14-10.023-10.898-8.855
			c-9.691,1.672-15.731,13.621-18.16,22.901c-5.95,4.685-10.141,11.145-20.884,10.992l0.103-0.129
			c-1.22-1.19-2.349-1.859-2.72-3.351c-2.09-8.46,3.321-12.84,6.661-17.1c2.16-2.77,4.469-5.809,6.349-8.55
			c4.03-5.87,8.601-12.97,9.38-20.759c0.497-5.032-1.917-11.452-7.071-11.452C391.486,0.675,391.016,0.724,390.526,0.826"/>
	</defs>
	<clipPath id="SVGID_4_">
		<use xlink:href="#SVGID_3_"  overflow="visible"/>
	</clipPath>
	<rect x="228.491" y="-4.325" clip-path="url(#SVGID_4_)" width="216.595" height="102.324"/>
	
		<rect x="228.491" y="-4.325" clip-path="url(#SVGID_4_)" fill="none" stroke="#000000" stroke-width="2" stroke-linecap="round" stroke-linejoin="round" stroke-miterlimit="10" width="216.595" height="102.324"/>
</g>
<g>
	<defs>
		<rect id="SVGID_5_" width="441" height="93"/>
	</defs>
	<clipPath id="SVGID_6_">
		<use xlink:href="#SVGID_5_"  overflow="visible"/>
	</clipPath>
	
		<path clip-path="url(#SVGID_6_)" fill="none" stroke="#000000" stroke-width="2" stroke-linecap="round" stroke-linejoin="round" stroke-miterlimit="10" d="
		M417.973,34.538c-4.239,1.422-7.173,8.1-8.173,12.52c6.047-2.043,11.694-4.49,13.016-11.298c-0.891-1.975-3.583-1.644-4.843-1.22
		V34.538z M242.735,47.058c5.848-2.344,12.193-4.19,12.71-11.91C248.318,32.698,244.098,40.68,242.735,47.058z M389.221,8.579
		c-4.766,8.53-7.905,18.7-10.593,29.32c1.86-1.13,3.15-3.27,4.54-5.19c4.526-6.26,9.874-14.52,9.38-24.12
		c-0.618-0.47-2.708-0.47-3.327,0V8.579z M379.233,62.016c10.744,0.152,14.934-6.308,20.883-10.992
		c2.431-9.28,8.47-21.23,18.16-22.902c6.76-1.167,11.8,1.868,10.899,8.855c-1.35,10.55-13.879,12.83-20.879,17.71
		c0.009,3.149,0.949,5.35,2.119,7.32c13.3,2.76,20.71-7.16,28.15-11.301c1.41,0.92,1.47,3.2,1.52,5.5
		c-3.539,3.931-11.63,9.38-19.67,11.601c-6.66,1.84-15.28,2.7-18.16-3.062c-0.859-1.729-0.54-3.639-1.51-5.5
		c-7.57,4.441-16.58,12.531-28.14,8.241c-2-2.05-2.87-5.25-3.931-8.25c-5.779,4.23-12.91,11.9-23,7.94
		c-3.189,1.31-9.76,3.109-11.5-0.311c-0.979-1.95,0.561-7.06,3.33-7.64c2.181-0.46,3.74,1.34,6.061,1.519
		c5.899-4.269,8.62-14.519,6.66-24.729c-2.432-2.07-6.08,1.29-8.171,3.36c-1.56,1.54-3.609,3.79-5.14,6.1
		c-8.06,12.13-11.27,32.109-16.95,47.019c-6.51,1.921-8.819-1.858-6.96-7.938c1.63-5.33,4.8-11.65,7.271-18.32
		c3.7-10.01,6.13-19.13,8.779-29.32c-6.5,7.42-12.96,17.68-26.939,15.57c-2.67,5.96-8.521,15.04-17.25,16.18
		c-7.68,1-13.76-2.1-14.521-9.159c-6.859,3.02-18.569,11.6-29.051,9.77c-3.479-0.61-5.108-3.14-6.959-6.11
		c-1.45-7.3-1.09-14.921,1.51-21.069c2.67-6.31,9.011-12.4,13.62-13.74c8.141-2.37,14.37,1.91,12.11,10.38
		c-2.26,8.5-12.41,11.77-19.97,14.959c-0.24,3.19,0.149,5.75,1.21,7.63c10.8,4.38,19.859-5.029,26.93-10.081
		c2.76-12.079,7.7-21.958,22.7-21.679c0.41,1.7,0.27,3.47,0,5.19c-8.54,0.65-15.5,9.62-14.22,20.149
		c0.43,3.521,1.909,7.44,5.75,7.63c7.239,0.36,10.21-9.041,11.8-14.96c-2.471-4.06-0.9-11.52,1.22-14.66c1.7-0.38,4.68-0.54,6.35,0
		c0.74,3.57,0.04,9.73,0.301,12.82c6.01,2.209,11.17-2.19,14.529-5.19c5.851-5.24,10.32-14.34,14.53-19.85
		c2.05,0.17,4.8-0.36,6.36,0.31c-1.511,6.62-2.761,13.5-4.54,19.85c4.899-3.25,10.239-15.83,19.979-11
		c1.311,0.65,3.13,2.72,3.63,3.97c3.7,9.05-1.72,21.95-6.96,28.089c7.681,0.4,13.03-7.68,17.86-12.22
		c1.2-11.14,3.71-20.55,7.87-30.54c2.81-6.76,6.71-16.89,13.62-18.33c6.12-1.28,9.021,5.83,8.479,11.3
		c-0.779,7.79-5.35,14.89-9.38,20.76c-1.88,2.74-4.189,5.78-6.35,8.55c-3.34,4.26-8.75,8.64-6.66,17.1
		c0.37,1.49,1.5,2.16,2.72,3.351L379.233,62.016z"/>
	<path clip-path="url(#SVGID_6_)" fill-rule="evenodd" clip-rule="evenodd" d="M417.973,34.538c-4.239,1.422-7.173,8.1-8.173,12.52
		c6.047-2.043,11.694-4.49,13.016-11.298c-0.891-1.975-3.583-1.644-4.843-1.22V34.538z M242.735,47.058
		c5.848-2.344,12.193-4.19,12.71-11.91C248.318,32.698,244.098,40.68,242.735,47.058 M389.221,8.579
		c-4.766,8.53-7.905,18.7-10.593,29.32c1.86-1.13,3.15-3.27,4.54-5.19c4.526-6.26,9.874-14.52,9.38-24.12
		c-0.618-0.47-2.708-0.47-3.327,0V8.579z M379.233,62.016c10.744,0.152,14.934-6.308,20.883-10.992
		c2.431-9.28,8.47-21.23,18.16-22.902c6.76-1.167,11.8,1.868,10.899,8.855c-1.35,10.55-13.879,12.83-20.879,17.71
		c0.009,3.149,0.949,5.35,2.119,7.32c13.3,2.76,20.71-7.16,28.15-11.301c1.41,0.92,1.47,3.2,1.52,5.5
		c-3.539,3.931-11.63,9.38-19.67,11.601c-6.66,1.84-15.28,2.7-18.16-3.062c-0.859-1.729-0.54-3.639-1.51-5.5
		c-7.57,4.441-16.58,12.531-28.14,8.241c-2-2.05-2.87-5.25-3.931-8.25c-5.779,4.23-12.91,11.9-23,7.94
		c-3.189,1.31-9.76,3.109-11.5-0.311c-0.979-1.95,0.561-7.06,3.33-7.64c2.181-0.46,3.74,1.34,6.061,1.519
		c5.899-4.269,8.62-14.519,6.66-24.729c-2.432-2.07-6.08,1.29-8.171,3.36c-1.56,1.54-3.609,3.79-5.14,6.1
		c-8.06,12.13-11.27,32.109-16.95,47.019c-6.51,1.921-8.819-1.858-6.96-7.938c1.63-5.33,4.8-11.65,7.271-18.32
		c3.7-10.01,6.13-19.13,8.779-29.32c-6.5,7.42-12.96,17.68-26.939,15.57c-2.67,5.96-8.521,15.04-17.25,16.18
		c-7.68,1-13.76-2.1-14.521-9.159c-6.859,3.02-18.569,11.6-29.051,9.77c-3.479-0.61-5.108-3.14-6.959-6.11
		c-1.45-7.3-1.09-14.921,1.51-21.069c2.67-6.31,9.011-12.4,13.62-13.74c8.141-2.37,14.37,1.91,12.11,10.38
		c-2.26,8.5-12.41,11.77-19.97,14.959c-0.24,3.19,0.149,5.75,1.21,7.63c10.8,4.38,19.859-5.029,26.93-10.081
		c2.76-12.079,7.7-21.958,22.7-21.679c0.41,1.7,0.27,3.47,0,5.19c-8.54,0.65-15.5,9.62-14.22,20.149
		c0.43,3.521,1.909,7.44,5.75,7.63c7.239,0.36,10.21-9.041,11.8-14.96c-2.471-4.06-0.9-11.52,1.22-14.66c1.7-0.38,4.68-0.54,6.35,0
		c0.74,3.57,0.04,9.73,0.301,12.82c6.01,2.209,11.17-2.19,14.529-5.19c5.851-5.24,10.32-14.34,14.53-19.85
		c2.05,0.17,4.8-0.36,6.36,0.31c-1.511,6.62-2.761,13.5-4.54,19.85c4.899-3.25,10.239-15.83,19.979-11
		c1.311,0.65,3.13,2.72,3.63,3.97c3.7,9.05-1.72,21.95-6.96,28.089c7.681,0.4,13.03-7.68,17.86-12.22
		c1.2-11.14,3.71-20.55,7.87-30.54c2.81-6.76,6.71-16.89,13.62-18.33c6.12-1.28,9.021,5.83,8.479,11.3
		c-0.779,7.79-5.35,14.89-9.38,20.76c-1.88,2.74-4.189,5.78-6.35,8.55c-3.34,4.26-8.75,8.64-6.66,17.1
		c0.37,1.49,1.5,2.16,2.72,3.351L379.233,62.016z"/>
</g>
<g>
	<defs>
		<path id="SVGID_7_" d="M255.445,35.147c-0.517,7.72-6.862,9.566-12.71,11.911C244.098,40.679,248.318,32.697,255.445,35.147
			 M422.815,35.759c-1.321,6.809-6.969,9.256-13.016,11.299c1-4.42,3.935-11.098,8.173-12.52v0.002
			C419.233,34.115,421.924,33.785,422.815,35.759 M392.548,8.588c0.494,9.6-4.854,17.861-9.38,24.12
			c-1.39,1.921-2.68,4.061-4.54,5.19c2.688-10.62,5.827-20.79,10.592-29.32v0.01C389.84,8.118,391.929,8.118,392.548,8.588
			 M390.526,0.826c-6.91,1.44-10.812,11.571-13.62,18.33c-4.16,9.991-6.669,19.4-7.87,30.542c-4.83,4.539-10.18,12.619-17.86,12.219
			c5.24-6.14,10.66-19.04,6.96-28.09c-0.5-1.25-2.318-3.319-3.631-3.97c-9.739-4.829-15.079,7.751-19.979,11.001
			c1.779-6.351,3.029-13.23,4.54-19.851c-0.985-0.423-2.447-0.367-3.906-0.311c-0.852,0.032-1.7,0.065-2.454,0.002
			c-4.21,5.509-8.68,14.609-14.53,19.849c-3.359,3.001-8.52,7.4-14.529,5.19c-0.262-3.089,0.439-9.25-0.301-12.819
			c-1.67-0.54-4.648-0.381-6.35,0c-2.12,3.14-3.691,10.599-1.22,14.659c-1.589,5.92-4.561,15.321-11.8,14.96
			c-3.841-0.189-5.32-4.11-5.75-7.629c-1.28-10.53,5.68-19.501,14.22-20.15c0.27-1.72,0.41-3.491,0-5.191
			c-14.999-0.28-19.94,9.601-22.7,21.68c-7.07,5.051-16.13,14.46-26.93,10.08c-1.061-1.88-1.449-4.439-1.209-7.63
			c7.559-3.189,17.709-6.46,19.969-14.96c2.26-8.47-3.97-12.75-12.11-10.379c-4.608,1.34-10.951,7.43-13.62,13.739
			c-2.6,6.15-2.96,13.77-1.51,21.07c1.85,2.971,3.48,5.5,6.96,6.11c10.481,1.831,22.191-6.75,29.05-9.77
			c0.761,7.06,6.84,10.159,14.521,9.159c8.729-1.14,14.58-10.22,17.25-16.18c13.979,2.11,20.438-8.15,26.938-15.569
			c-2.647,10.189-5.078,19.31-8.777,29.32c-2.473,6.67-5.643,12.988-7.271,18.318c-1.859,6.081,0.45,9.86,6.96,7.94
			c5.681-14.91,8.891-34.889,16.95-47.02c1.53-2.31,3.58-4.56,5.14-6.1c2.091-2.07,5.74-5.429,8.171-3.36
			c1.959,10.211-0.762,20.459-6.66,24.73c-2.32-0.179-3.881-1.979-6.061-1.52c-2.77,0.579-4.31,5.689-3.331,7.64
			c1.741,3.42,8.312,1.621,11.501,0.311c10.09,3.959,17.221-3.711,23-7.94c1.061,3,1.932,6.2,3.931,8.25
			c11.56,4.29,20.569-3.801,28.14-8.24c0.97,1.861,0.65,3.77,1.51,5.5c2.88,5.761,11.5,4.901,18.16,3.06
			c8.04-2.22,16.13-7.669,19.67-11.6c-0.05-2.299-0.109-4.58-1.52-5.5c-7.44,4.14-14.852,14.061-28.15,11.301
			c-1.17-1.971-2.11-4.171-2.12-7.321c7-4.88,19.53-7.158,20.88-17.708c0.9-6.988-4.14-10.023-10.898-8.855
			c-9.691,1.672-15.731,13.621-18.16,22.901c-5.95,4.685-10.141,11.145-20.884,10.992l0.103-0.129
			c-1.22-1.19-2.349-1.859-2.72-3.351c-2.09-8.46,3.321-12.84,6.661-17.1c2.16-2.77,4.469-5.809,6.349-8.55
			c4.03-5.87,8.601-12.97,9.38-20.759c0.497-5.032-1.917-11.452-7.071-11.452C391.486,0.675,391.016,0.724,390.526,0.826"/>
	</defs>
	<clipPath id="SVGID_8_">
		<use xlink:href="#SVGID_7_"  overflow="visible"/>
	</clipPath>
	<rect x="228.491" y="-4.325" clip-path="url(#SVGID_8_)" width="216.595" height="102.324"/>
	
		<rect x="228.491" y="-4.325" clip-path="url(#SVGID_8_)" fill="none" stroke="#000000" stroke-width="2" stroke-linecap="round" stroke-linejoin="round" stroke-miterlimit="10" width="216.595" height="102.324"/>
</g>
<g>
	<defs>
		<rect id="SVGID_9_" width="441" height="93"/>
	</defs>
	<clipPath id="SVGID_10_">
		<use xlink:href="#SVGID_9_"  overflow="visible"/>
	</clipPath>
	
		<path clip-path="url(#SVGID_10_)" fill="none" stroke="#000000" stroke-width="2" stroke-linecap="round" stroke-linejoin="round" stroke-miterlimit="10" d="
		M417.973,34.538c-4.239,1.422-7.173,8.1-8.173,12.52c6.047-2.043,11.694-4.49,13.016-11.298c-0.891-1.975-3.583-1.644-4.843-1.22
		V34.538z M242.735,47.058c5.848-2.344,12.193-4.19,12.71-11.91C248.318,32.698,244.098,40.68,242.735,47.058z M389.221,8.579
		c-4.766,8.53-7.905,18.7-10.593,29.32c1.86-1.13,3.15-3.27,4.54-5.19c4.526-6.26,9.874-14.52,9.38-24.12
		c-0.618-0.47-2.708-0.47-3.327,0V8.579z M379.233,62.016c10.744,0.152,14.934-6.308,20.883-10.992
		c2.431-9.28,8.47-21.23,18.16-22.902c6.76-1.167,11.8,1.868,10.899,8.855c-1.35,10.55-13.879,12.83-20.879,17.71
		c0.009,3.149,0.949,5.35,2.119,7.32c13.3,2.76,20.71-7.16,28.15-11.301c1.41,0.92,1.47,3.2,1.52,5.5
		c-3.539,3.931-11.63,9.38-19.67,11.601c-6.66,1.84-15.28,2.7-18.16-3.062c-0.859-1.729-0.54-3.639-1.51-5.5
		c-7.57,4.441-16.58,12.531-28.14,8.241c-2-2.05-2.87-5.25-3.931-8.25c-5.779,4.23-12.91,11.9-23,7.94
		c-3.189,1.31-9.76,3.109-11.5-0.311c-0.979-1.95,0.561-7.06,3.33-7.64c2.181-0.46,3.74,1.34,6.061,1.519
		c5.899-4.269,8.62-14.519,6.66-24.729c-2.432-2.07-6.08,1.29-8.171,3.36c-1.56,1.54-3.609,3.79-5.14,6.1
		c-8.06,12.13-11.27,32.109-16.95,47.019c-6.51,1.921-8.819-1.858-6.96-7.938c1.63-5.33,4.8-11.65,7.271-18.32
		c3.7-10.01,6.13-19.13,8.779-29.32c-6.5,7.42-12.96,17.68-26.939,15.57c-2.67,5.96-8.521,15.04-17.25,16.18
		c-7.68,1-13.76-2.1-14.521-9.159c-6.859,3.02-18.569,11.6-29.051,9.77c-3.479-0.61-5.108-3.14-6.959-6.11
		c-1.45-7.3-1.09-14.921,1.51-21.069c2.67-6.31,9.011-12.4,13.62-13.74c8.141-2.37,14.37,1.91,12.11,10.38
		c-2.26,8.5-12.41,11.77-19.97,14.959c-0.24,3.19,0.149,5.75,1.21,7.63c10.8,4.38,19.859-5.029,26.93-10.081
		c2.76-12.079,7.7-21.958,22.7-21.679c0.41,1.7,0.27,3.47,0,5.19c-8.54,0.65-15.5,9.62-14.22,20.149
		c0.43,3.521,1.909,7.44,5.75,7.63c7.239,0.36,10.21-9.041,11.8-14.96c-2.471-4.06-0.9-11.52,1.22-14.66c1.7-0.38,4.68-0.54,6.35,0
		c0.74,3.57,0.04,9.73,0.301,12.82c6.01,2.209,11.17-2.19,14.529-5.19c5.851-5.24,10.32-14.34,14.53-19.85
		c2.05,0.17,4.8-0.36,6.36,0.31c-1.511,6.62-2.761,13.5-4.54,19.85c4.899-3.25,10.239-15.83,19.979-11
		c1.311,0.65,3.13,2.72,3.63,3.97c3.7,9.05-1.72,21.95-6.96,28.089c7.681,0.4,13.03-7.68,17.86-12.22
		c1.2-11.14,3.71-20.55,7.87-30.54c2.81-6.76,6.71-16.89,13.62-18.33c6.12-1.28,9.021,5.83,8.479,11.3
		c-0.779,7.79-5.35,14.89-9.38,20.76c-1.88,2.74-4.189,5.78-6.35,8.55c-3.34,4.26-8.75,8.64-6.66,17.1
		c0.37,1.49,1.5,2.16,2.72,3.351L379.233,62.016z"/>
	<path clip-path="url(#SVGID_10_)" fill-rule="evenodd" clip-rule="evenodd" d="M210.049,43.391
		c-2.71,5.934-3.863,18.248-10.594,21.373c-4.917,2.281-9.45,0.298-8.776-5.803c6.037,1.643,8.843-4.735,9.987-8.854
		c2.92-10.49,4.54-26.43,9.08-34.507c2-0.073,4.55-0.21,6.66,0c-1.09,6.446-4.34,13.32-5.14,21.07
		c10.079,6.647,18.739-6.945,15.439-17.403c-3.75-11.9-24.335-10.64-30.265-1.53c-3.337,5.12,0.388,6.79,2.724,10.69
		c-4.09,4.49-10.09-1.21-10.29-6.42c-0.15-3.76,1.75-7.097,3.02-8.86c7.03-9.746,30.819-12.625,39.04-1.22
		c10.579,14.68-3.91,39.79-20.88,31.453"/>
</g>
<g>
	<defs>
		<path id="SVGID_11_" d="M191.894,13.147c-1.27,1.764-3.17,5.101-3.02,8.86c0.2,5.21,6.2,10.911,10.29,6.42
			c-2.336-3.9-6.061-5.569-2.724-10.689c5.93-9.11,26.515-10.371,30.266,1.53c3.299,10.457-5.361,24.049-15.44,17.403
			c0.8-7.751,4.05-14.624,5.14-21.07c-2.11-0.211-4.66-0.074-6.66,0c-4.54,8.077-6.16,24.016-9.08,34.507
			c-1.144,4.116-3.949,10.495-9.987,8.853c-0.674,6.1,3.859,8.084,8.776,5.802c6.731-3.124,7.884-15.438,10.594-21.373l0.006-0.01
			c16.969,8.338,31.458-16.773,20.879-31.453c-3.719-5.159-10.621-7.395-17.721-7.395C204.622,4.533,195.744,7.81,191.894,13.147"/>
	</defs>
	<clipPath id="SVGID_12_">
		<use xlink:href="#SVGID_11_"  overflow="visible"/>
	</clipPath>
	<rect x="183.866" y="-0.468" clip-path="url(#SVGID_12_)" width="55.667" height="71.148"/>
	
		<rect x="183.866" y="-0.468" clip-path="url(#SVGID_12_)" fill="none" stroke="#000000" stroke-width="2" stroke-linecap="round" stroke-linejoin="round" stroke-miterlimit="10" width="55.667" height="71.148"/>
</g>
<g>
	<defs>
		<rect id="SVGID_13_" width="441" height="93"/>
	</defs>
	<clipPath id="SVGID_14_">
		<use xlink:href="#SVGID_13_"  overflow="visible"/>
	</clipPath>
	
		<path clip-path="url(#SVGID_14_)" fill="none" stroke="#000000" stroke-width="2" stroke-linecap="round" stroke-linejoin="round" stroke-miterlimit="10" d="
		M210.049,43.391c-2.71,5.934-3.863,18.248-10.594,21.373c-4.917,2.281-9.45,0.298-8.776-5.803c6.037,1.643,8.843-4.735,9.987-8.854
		c2.92-10.49,4.54-26.43,9.08-34.507c2-0.073,4.55-0.21,6.66,0c-1.09,6.446-4.34,13.32-5.14,21.07
		c10.079,6.647,18.739-6.945,15.439-17.403c-3.75-11.9-24.335-10.64-30.265-1.53c-3.337,5.12,0.388,6.79,2.724,10.69
		c-4.09,4.49-10.09-1.21-10.29-6.42c-0.15-3.76,1.75-7.097,3.02-8.86c7.03-9.746,30.819-12.625,39.04-1.22
		c10.579,14.68-3.91,39.79-20.88,31.453"/>
	<path clip-path="url(#SVGID_14_)" d="M210.049,43.391c-2.71,5.934-3.863,18.248-10.594,21.373c-4.917,2.282-9.45,0.298-8.776-5.803
		c6.037,1.643,8.843-4.735,9.987-8.854c2.92-10.49,4.54-26.43,9.08-34.507c2-0.073,4.55-0.21,6.66,0
		c-1.09,6.446-4.34,13.32-5.14,21.07c10.079,6.647,18.739-6.945,15.439-17.403c-3.75-11.9-24.335-10.64-30.265-1.53
		c-3.337,5.12,0.388,6.79,2.724,10.69c-4.09,4.49-10.09-1.21-10.29-6.42c-0.15-3.76,1.75-7.097,3.02-8.86
		c7.03-9.746,30.819-12.625,39.04-1.22c10.579,14.68-3.91,39.79-20.88,31.453L210.049,43.391z"/>
	
		<path clip-path="url(#SVGID_14_)" fill="none" stroke="#000000" stroke-width="2" stroke-linecap="round" stroke-linejoin="round" stroke-miterlimit="10" d="
		M210.049,43.391c-2.71,5.934-3.863,18.248-10.594,21.373c-4.917,2.282-9.45,0.298-8.776-5.803c6.037,1.643,8.843-4.735,9.987-8.854
		c2.92-10.49,4.54-26.43,9.08-34.507c2-0.073,4.55-0.21,6.66,0c-1.09,6.446-4.34,13.32-5.14,21.07
		c10.079,6.647,18.739-6.945,15.439-17.403c-3.75-11.9-24.335-10.64-30.265-1.53c-3.337,5.12,0.388,6.79,2.724,10.69
		c-4.09,4.49-10.09-1.21-10.29-6.42c-0.15-3.76,1.75-7.097,3.02-8.86c7.03-9.746,30.819-12.625,39.04-1.22
		c10.579,14.68-3.91,39.79-20.88,31.453L210.049,43.391z"/>
	<path clip-path="url(#SVGID_14_)" fill-rule="evenodd" clip-rule="evenodd" d="M123.489,46.747c6.377-1.71,12.156-4.02,12.41-11.91
		C128.58,33.216,125.189,40.667,123.489,46.747 M94.436,34.534c-4.225,1.312-7.46,8.07-8.474,12.521
		c5.973-2.118,11.853-4.327,13.014-11.3C98.083,33.833,95.75,34.125,94.436,34.534 M55.089,24.151c-0.13,2.64-0.377,4.31-1.21,6.717
		c3.553,3.18,9.45,3.55,10.593,8.56c1.818,7.95-4.686,14.31-3.935,21.99c5.09,0.131,8.95-4.1,12.41-7.328
		c1.075-1,2.86-1.951,3.63-3.052c1.25-1.779,1.18-4.459,1.817-6.41c2.13-6.53,7.89-14.49,14.22-16.18c3.33-0.89,8.6-0.49,10.89,1.53
		c0.64,1.08,1,2.45,1.81,3.36c0.45,14.6-12.61,15.58-20.89,21.37c-0.24,8.061,4.75,9.07,11.8,7.33c6.77-1.67,13.79-8.698,17.85-11.6
		c2.37-8.8,7.22-19.55,15.74-21.98c7.31-2.09,13.5,1.44,13.01,7.63c-0.84,10.65-13.09,13.95-20.58,18.02
		c-1.43,4.45,1.39,8.481,5.75,8.86c9.7,0.84,18.31-10.221,24.21-12.21c-0.47,1.59,0.61,4.699,0,6.72
		c-0.86,2.85-9.64,6.99-12.71,8.25c-10.05,4.1-24.81,6.861-25.12-6.41c-6.37,2.89-15.6,9.31-25.12,10.08
		c-7.3,0.6-11.48-3.03-12.41-9.771c-6.5,3.32-11.88,10.33-20.89,9.16c-14.16-6.85,10.12-25.479-3.93-31.14
		c-5.43,7.04-9.32,15.64-16.65,20.77c0.26-2.819-0.64-5.31,0-7.63c0.35-1.3,2.23-2.569,3.33-3.97c2.28-2.92,3.58-5.43,5.44-8.85
		c0.85-1.57,2.33-3.36,2.42-4.58c0.1-1.43-1.05-2.51-1.21-3.97c-0.29-2.75,0.53-4.6,1.82-7.02c3.28-0.67,6.49-0.24,7.87,1.83
		L55.089,24.151z"/>
</g>
<g>
	<defs>
		<path id="SVGID_15_" d="M135.899,34.837c-0.254,7.89-6.033,10.199-12.41,11.909C125.189,40.667,128.579,33.217,135.899,34.837
			 M94.435,34.534c1.314-0.409,3.647-0.702,4.54,1.221c-1.161,6.973-7.041,9.181-13.014,11.3
			C86.975,42.604,90.21,35.846,94.435,34.534 M47.174,22.399c-1.289,2.42-2.11,4.269-1.82,7.02c0.16,1.459,1.31,2.539,1.21,3.97
			c-0.09,1.219-1.57,3.009-2.42,4.58c-1.86,3.42-3.16,5.93-5.44,8.849c-1.1,1.401-2.98,2.671-3.33,3.97
			c-0.639,2.32,0.261,4.811,0,7.63c7.33-5.13,11.22-13.729,16.65-20.77c14.05,5.66-10.23,24.291,3.93,31.14
			c9.011,1.17,14.39-5.84,20.89-9.16c0.929,6.74,5.11,10.37,12.41,9.771c9.52-0.771,18.75-7.19,25.12-10.08
			c0.31,13.271,15.07,10.51,25.12,6.409c3.07-1.259,11.85-5.399,12.71-8.249c0.61-2.021-0.47-5.13,0-6.721
			c-5.9,1.99-14.509,13.051-24.21,12.211c-4.36-0.38-7.18-4.41-5.75-8.86c7.49-4.07,19.74-7.371,20.581-18.02
			c0.489-6.191-5.701-9.721-13.011-7.631c-8.52,2.43-13.369,13.18-15.74,21.98c-4.06,2.9-11.08,9.93-17.85,11.6
			c-7.049,1.74-12.04,0.73-11.8-7.33c8.28-5.79,21.34-6.769,20.89-21.37c-0.81-0.91-1.17-2.28-1.81-3.36
			c-2.29-2.019-7.559-2.42-10.889-1.53c-6.331,1.691-12.091,9.65-14.221,16.181c-0.637,1.95-0.567,4.63-1.817,6.409
			c-0.77,1.101-2.555,2.051-3.629,3.051c-3.461,3.23-7.321,7.46-12.411,7.329c-0.751-7.68,5.753-14.04,3.935-21.99
			c-1.143-5.01-7.04-5.38-10.594-8.56c0.834-2.407,1.081-4.076,1.211-6.716l-0.045,0.076c-0.987-1.48-2.91-2.122-5.126-2.122
			C49.037,22.106,48.108,22.208,47.174,22.399"/>
	</defs>
	<clipPath id="SVGID_16_">
		<use xlink:href="#SVGID_15_"  overflow="visible"/>
	</clipPath>
	<rect x="30.139" y="17.106" clip-path="url(#SVGID_16_)" width="127.257" height="57.357"/>
	
		<rect x="30.139" y="17.106" clip-path="url(#SVGID_16_)" fill="none" stroke="#000000" stroke-width="2" stroke-linecap="round" stroke-linejoin="round" stroke-miterlimit="10" width="127.257" height="57.357"/>
</g>
<g>
	<defs>
		<rect id="SVGID_17_" width="441" height="93"/>
	</defs>
	<clipPath id="SVGID_18_">
		<use xlink:href="#SVGID_17_"  overflow="visible"/>
	</clipPath>
	
		<path clip-path="url(#SVGID_18_)" fill="none" stroke="#000000" stroke-width="2" stroke-linecap="round" stroke-linejoin="round" stroke-miterlimit="10" d="
		M123.489,46.747c6.377-1.71,12.156-4.02,12.41-11.91C128.58,33.216,125.189,40.667,123.489,46.747z M94.436,34.534
		c-4.225,1.312-7.46,8.07-8.474,12.521c5.973-2.118,11.853-4.327,13.014-11.3C98.083,33.833,95.75,34.125,94.436,34.534z
		 M55.089,24.151c-0.13,2.64-0.377,4.31-1.21,6.717c3.553,3.18,9.45,3.55,10.593,8.56c1.818,7.95-4.686,14.31-3.935,21.99
		c5.09,0.131,8.95-4.1,12.41-7.328c1.075-1,2.86-1.951,3.63-3.052c1.25-1.779,1.18-4.459,1.817-6.41
		c2.13-6.53,7.89-14.49,14.22-16.18c3.33-0.89,8.6-0.49,10.89,1.53c0.64,1.08,1,2.45,1.81,3.36c0.45,14.6-12.61,15.58-20.89,21.37
		c-0.24,8.061,4.75,9.07,11.8,7.33c6.77-1.67,13.79-8.698,17.85-11.6c2.37-8.8,7.22-19.55,15.74-21.98
		c7.31-2.09,13.5,1.44,13.01,7.63c-0.84,10.65-13.09,13.95-20.58,18.02c-1.43,4.45,1.39,8.481,5.75,8.86
		c9.7,0.84,18.31-10.221,24.21-12.21c-0.47,1.59,0.61,4.699,0,6.72c-0.86,2.85-9.64,6.99-12.71,8.25
		c-10.05,4.1-24.81,6.861-25.12-6.41c-6.37,2.89-15.6,9.31-25.12,10.08c-7.3,0.6-11.48-3.03-12.41-9.771
		c-6.5,3.32-11.88,10.33-20.89,9.16c-14.16-6.85,10.12-25.479-3.93-31.14c-5.43,7.04-9.32,15.64-16.65,20.77
		c0.26-2.819-0.64-5.31,0-7.63c0.35-1.3,2.23-2.569,3.33-3.97c2.28-2.92,3.58-5.43,5.44-8.85c0.85-1.57,2.33-3.36,2.42-4.58
		c0.1-1.43-1.05-2.51-1.21-3.97c-0.29-2.75,0.53-4.6,1.82-7.02c3.28-0.67,6.49-0.24,7.87,1.83L55.089,24.151z"/>
	<path clip-path="url(#SVGID_18_)" d="M123.489,46.747c6.377-1.71,12.156-4.02,12.41-11.91
		C128.58,33.216,125.189,40.667,123.489,46.747 M94.436,34.534c-4.225,1.312-7.46,8.07-8.474,12.521
		c5.973-2.118,11.853-4.327,13.014-11.3C98.083,33.833,95.75,34.125,94.436,34.534 M55.089,24.151c-0.13,2.64-0.377,4.31-1.21,6.717
		c3.553,3.18,9.45,3.55,10.593,8.56c1.818,7.952-4.686,14.31-3.935,21.99c5.09,0.131,8.95-4.1,12.41-7.328
		c1.075-1,2.86-1.951,3.63-3.052c1.25-1.779,1.18-4.459,1.817-6.41c2.13-6.53,7.89-14.49,14.22-16.18c3.33-0.89,8.6-0.49,10.89,1.53
		c0.64,1.08,1,2.45,1.81,3.36c0.45,14.6-12.61,15.58-20.89,21.37c-0.24,8.061,4.75,9.07,11.8,7.33c6.77-1.67,13.79-8.698,17.85-11.6
		c2.37-8.8,7.22-19.55,15.74-21.98c7.31-2.09,13.5,1.44,13.01,7.63c-0.84,10.65-13.09,13.95-20.58,18.02
		c-1.43,4.45,1.39,8.481,5.75,8.86c9.7,0.84,18.31-10.221,24.21-12.21c-0.47,1.59,0.61,4.699,0,6.72
		c-0.86,2.85-9.64,6.99-12.71,8.25c-10.05,4.1-24.81,6.861-25.12-6.41c-6.37,2.89-15.6,9.312-25.12,10.08
		c-7.3,0.6-11.48-3.03-12.41-9.769c-6.5,3.318-11.88,10.328-20.89,9.158c-14.16-6.85,10.12-25.479-3.93-31.14
		c-5.43,7.04-9.32,15.64-16.65,20.77c0.26-2.819-0.64-5.31,0-7.63c0.35-1.3,2.23-2.569,3.33-3.97c2.28-2.92,3.58-5.43,5.44-8.85
		c0.85-1.57,2.33-3.36,2.42-4.58c0.1-1.43-1.05-2.51-1.21-3.97c-0.29-2.75,0.53-4.6,1.82-7.02c3.28-0.67,6.49-0.24,7.87,1.83
		L55.089,24.151z"/>
	
		<path clip-path="url(#SVGID_18_)" fill="none" stroke="#000000" stroke-width="2" stroke-linecap="round" stroke-linejoin="round" stroke-miterlimit="10" d="
		M123.489,46.747c6.377-1.71,12.156-4.02,12.41-11.91C128.58,33.216,125.189,40.667,123.489,46.747z M94.436,34.534
		c-4.225,1.312-7.46,8.07-8.474,12.521c5.973-2.118,11.853-4.327,13.014-11.3C98.083,33.833,95.75,34.125,94.436,34.534z
		 M55.089,24.151c-0.13,2.64-0.377,4.31-1.21,6.717c3.553,3.18,9.45,3.55,10.593,8.56c1.818,7.952-4.686,14.31-3.935,21.99
		c5.09,0.131,8.95-4.1,12.41-7.328c1.075-1,2.86-1.951,3.63-3.052c1.25-1.779,1.18-4.459,1.817-6.41
		c2.13-6.53,7.89-14.49,14.22-16.18c3.33-0.89,8.6-0.49,10.89,1.53c0.64,1.08,1,2.45,1.81,3.36c0.45,14.6-12.61,15.58-20.89,21.37
		c-0.24,8.061,4.75,9.07,11.8,7.33c6.77-1.67,13.79-8.698,17.85-11.6c2.37-8.8,7.22-19.55,15.74-21.98
		c7.31-2.09,13.5,1.44,13.01,7.63c-0.84,10.65-13.09,13.95-20.58,18.02c-1.43,4.45,1.39,8.481,5.75,8.86
		c9.7,0.84,18.31-10.221,24.21-12.21c-0.47,1.59,0.61,4.699,0,6.72c-0.86,2.85-9.64,6.99-12.71,8.25
		c-10.05,4.1-24.81,6.861-25.12-6.41c-6.37,2.89-15.6,9.312-25.12,10.08c-7.3,0.6-11.48-3.03-12.41-9.769
		c-6.5,3.318-11.88,10.328-20.89,9.158c-14.16-6.85,10.12-25.479-3.93-31.14c-5.43,7.04-9.32,15.64-16.65,20.77
		c0.26-2.819-0.64-5.31,0-7.63c0.35-1.3,2.23-2.569,3.33-3.97c2.28-2.92,3.58-5.43,5.44-8.85c0.85-1.57,2.33-3.36,2.42-4.58
		c0.1-1.43-1.05-2.51-1.21-3.97c-0.29-2.75,0.53-4.6,1.82-7.02c3.28-0.67,6.49-0.24,7.87,1.83L55.089,24.151z"/>
	<path clip-path="url(#SVGID_18_)" fill-rule="evenodd" clip-rule="evenodd" d="M4.115,20.731c-3.962-3.288-0.342-7.813,2.88-9.335
		c3.108-1.45,7.82-2.52,11.214-2.8l11.542-1.43l7.177-0.78c3.883-0.58,3.48-1.38,5.205-4.44c2.047-2.69,7.548-1.51,6.37,2.61
		c-0.257,1.17-0.74,2.06-1.368,3.07c-3.09,3.88-8.675,5.69-13.478,5.98l-7.432,0.86c-0.666,0.12-1.305,0.37-1.883,0.72
		c-0.59,0.39-1.168,1.22-1.496,1.84c-0.49,0.73-0.94,1.86-0.92,2.77c0.05,0.84-0.22,4.02-0.2,4.77c0.01,0.51,0.1,1.02,0.26,1.51
		c1.1,3.33,6.7,2.38,9.03,1.81c0.73-0.21,1.47-0.41,2.2-0.6c0.45-0.13,0.91-0.18,1.38-0.17c0.31-0.01,0.61,0.1,0.85,0.29
		c0.94,1.04,1.19,2.08,1.04,3.43c0.02,0.87-0.42,1.7-1.15,2.17c-3.37,2.27-6.66,2.05-10.49,2.73c-1.26,0.22-2.4,0.89-3.21,1.9
		l-0.98,1.07c-0.68,0.74-1.06,1.68-1.39,2.61c-0.45,1.17-0.73,2.42-0.81,3.68c-0.62,5.629-3.01,14.62-7.17,18.79
		c-2.57,2.34-7.48,2.141-10.02-0.069c-0.22-0.091-0.32-0.23-0.45-0.431c-0.04-0.16-0.14-0.34-0.12-0.51
		c-0.01-0.13-0.02-0.26-0.04-0.38c-0.03-0.45-0.08-0.9-0.15-1.34c-0.02-0.17,0.01-0.351,0.09-0.5c0.08-0.181,0.15-0.37,0.19-0.561
		c0.03-0.149,0.1-0.279,0.21-0.37c0.33-0.199,0.65-0.399,0.97-0.609c0.2-0.13,0.43-0.21,0.66-0.24c0.41,0.03,0.82,0.021,1.22-0.02
		c2.28-0.591,4.77-4.051,5.65-6.021c0.92-2.05,1.58-4.189,1.98-6.4l1.34-5.37c1.35-4.72-2.1-3.01-4.64-3.82
		c-0.31-0.02-0.59-0.17-0.77-0.41c-0.19-0.24-0.26-0.56-0.19-0.86c0.05-0.78,0.11-1.56,0.18-2.34c0.07-0.34,0.19-0.66,0.35-0.96
		c0.12-0.25,0.32-0.46,0.56-0.58c0.13-0.06,0.27-0.08,0.41-0.09c0.75-0.02,4.21-0.89,4.87-1.25c0.28-0.18,0.51-0.41,0.7-0.67
		c0.44-0.65,0.63-1.66,0.72-2.42l-0.18-8.52c0.01-0.19-0.03-0.39-0.12-0.56c-0.82-1.68-3-1.49-4.48-1.01
		c-1.48,0.81-1.92,1.75-2.85,3.09c-0.11,0.13-0.26,0.23-0.43,0.3c-0.89,0.34-1.9,0.26-2.73-0.22"/>
</g>
<g>
	<defs>
		<path id="SVGID_19_" d="M42.133,1.946c-1.725,3.06-1.322,3.86-5.205,4.44l-7.177,0.78l-11.542,1.43
			c-3.394,0.28-8.106,1.35-11.214,2.8c-3.222,1.523-6.842,6.047-2.88,9.336l0.102-0.086c0.829,0.481,1.839,0.56,2.729,0.22
			c0.17-0.069,0.32-0.169,0.43-0.3c0.93-1.339,1.37-2.28,2.85-3.089c1.48-0.48,3.66-0.67,4.48,1.009c0.09,0.17,0.13,0.37,0.121,0.56
			l0.18,8.52c-0.091,0.76-0.281,1.771-0.721,2.42c-0.19,0.261-0.42,0.491-0.701,0.67c-0.658,0.361-4.119,1.23-4.868,1.25
			c-0.141,0.01-0.281,0.031-0.411,0.09c-0.24,0.12-0.44,0.33-0.56,0.58c-0.16,0.3-0.28,0.62-0.35,0.961
			c-0.07,0.779-0.13,1.559-0.18,2.339c-0.07,0.301,0,0.62,0.19,0.86c0.18,0.241,0.46,0.39,0.77,0.411c2.54,0.81,5.99-0.9,4.64,3.819
			l-1.34,5.371c-0.4,2.21-1.06,4.349-1.98,6.4c-0.879,1.969-3.37,5.429-5.649,6.02c-0.401,0.04-0.811,0.049-1.221,0.021
			c-0.23,0.028-0.46,0.108-0.659,0.239c-0.321,0.21-0.64,0.409-0.971,0.609c-0.109,0.091-0.18,0.221-0.21,0.37
			c-0.04,0.19-0.11,0.38-0.19,0.561c-0.08,0.149-0.11,0.33-0.089,0.499c0.069,0.44,0.119,0.891,0.149,1.341
			c0.02,0.12,0.03,0.251,0.041,0.38c-0.021,0.17,0.08,0.35,0.119,0.51c0.13,0.2,0.23,0.34,0.45,0.431
			c2.54,2.21,7.451,2.409,10.02,0.069c4.161-4.17,6.55-13.16,7.17-18.789c0.08-1.26,0.36-2.51,0.81-3.68
			c0.331-0.931,0.71-1.871,1.39-2.61l0.98-1.07c0.81-1.01,1.95-1.681,3.21-1.9c3.831-0.681,7.12-0.46,10.49-2.731
			c0.73-0.47,1.171-1.3,1.15-2.17c0.15-1.35-0.1-2.389-1.039-3.43c-0.241-0.19-0.541-0.3-0.851-0.29c-0.47-0.01-0.93,0.04-1.38,0.17
			c-0.73,0.19-1.47,0.39-2.2,0.6c-2.33,0.57-7.93,1.52-9.03-1.81c-0.16-0.49-0.25-1-0.26-1.509c-0.02-0.751,0.25-3.931,0.201-4.77
			c-0.021-0.911,0.429-2.041,0.919-2.77c0.328-0.621,0.906-1.45,1.496-1.84c0.578-0.35,1.217-0.6,1.883-0.721l7.432-0.86
			c4.803-0.289,10.388-2.1,13.479-5.979c0.627-1.011,1.11-1.9,1.367-3.07c0.75-2.623-1.207-4.055-3.256-4.055
			C44.077,0.502,42.877,0.969,42.133,1.946"/>
	</defs>
	<clipPath id="SVGID_20_">
		<use xlink:href="#SVGID_19_"  overflow="visible"/>
	</clipPath>
	<rect x="-4.5" y="-4.498" clip-path="url(#SVGID_20_)" width="58.167" height="74.957"/>
	
		<rect x="-4.5" y="-4.498" clip-path="url(#SVGID_20_)" fill="none" stroke="#000000" stroke-width="2" stroke-linecap="round" stroke-linejoin="round" stroke-miterlimit="10" width="58.167" height="74.957"/>
</g>
<g>
	<defs>
		<rect id="SVGID_21_" width="441" height="93"/>
	</defs>
	<clipPath id="SVGID_22_">
		<use xlink:href="#SVGID_21_"  overflow="visible"/>
	</clipPath>
	
		<path clip-path="url(#SVGID_22_)" fill="none" stroke="#000000" stroke-width="2" stroke-linecap="round" stroke-linejoin="round" stroke-miterlimit="10" d="
		M4.115,20.731c-3.962-3.288-0.342-7.813,2.88-9.335c3.108-1.45,7.82-2.52,11.214-2.8l11.542-1.43l7.177-0.78
		c3.883-0.58,3.48-1.38,5.205-4.44c2.047-2.69,7.548-1.51,6.37,2.61c-0.257,1.17-0.74,2.06-1.368,3.07
		c-3.09,3.88-8.675,5.69-13.478,5.98l-7.432,0.86c-0.666,0.12-1.305,0.37-1.883,0.72c-0.59,0.39-1.168,1.22-1.496,1.84
		c-0.49,0.73-0.94,1.86-0.92,2.77c0.05,0.84-0.22,4.02-0.2,4.77c0.01,0.51,0.1,1.02,0.26,1.51c1.1,3.33,6.7,2.38,9.03,1.81
		c0.73-0.21,1.47-0.41,2.2-0.6c0.45-0.13,0.91-0.18,1.38-0.17c0.31-0.01,0.61,0.1,0.85,0.29c0.94,1.04,1.19,2.08,1.04,3.43
		c0.02,0.87-0.42,1.7-1.15,2.17c-3.37,2.27-6.66,2.05-10.49,2.73c-1.26,0.22-2.4,0.89-3.21,1.9l-0.98,1.07
		c-0.68,0.74-1.06,1.68-1.39,2.61c-0.45,1.17-0.73,2.42-0.81,3.68c-0.62,5.629-3.01,14.62-7.17,18.79
		c-2.57,2.34-7.48,2.141-10.02-0.069c-0.22-0.091-0.32-0.23-0.45-0.431c-0.04-0.16-0.14-0.34-0.12-0.51
		c-0.01-0.13-0.02-0.26-0.04-0.38c-0.03-0.45-0.08-0.9-0.15-1.34c-0.02-0.17,0.01-0.351,0.09-0.5c0.08-0.181,0.15-0.37,0.19-0.561
		c0.03-0.149,0.1-0.279,0.21-0.37c0.33-0.199,0.65-0.399,0.97-0.609c0.2-0.13,0.43-0.21,0.66-0.24c0.41,0.03,0.82,0.021,1.22-0.02
		c2.28-0.591,4.77-4.051,5.65-6.021c0.92-2.05,1.58-4.189,1.98-6.4l1.34-5.37c1.35-4.72-2.1-3.01-4.64-3.82
		c-0.31-0.02-0.59-0.17-0.77-0.41c-0.19-0.24-0.26-0.56-0.19-0.86c0.05-0.78,0.11-1.56,0.18-2.34c0.07-0.34,0.19-0.66,0.35-0.96
		c0.12-0.25,0.32-0.46,0.56-0.58c0.13-0.06,0.27-0.08,0.41-0.09c0.75-0.02,4.21-0.89,4.87-1.25c0.28-0.18,0.51-0.41,0.7-0.67
		c0.44-0.65,0.63-1.66,0.72-2.42l-0.18-8.52c0.01-0.19-0.03-0.39-0.12-0.56c-0.82-1.68-3-1.49-4.48-1.01
		c-1.48,0.81-1.92,1.75-2.85,3.09c-0.11,0.13-0.26,0.23-0.43,0.3c-0.89,0.34-1.9,0.26-2.73-0.22"/>
	<path clip-path="url(#SVGID_22_)" d="M4.115,20.731c-3.962-3.288-0.342-7.813,2.88-9.335c3.108-1.45,7.82-2.52,11.214-2.8
		l11.542-1.43l7.177-0.78c3.883-0.58,3.48-1.38,5.205-4.44c2.047-2.69,7.548-1.51,6.37,2.61c-0.257,1.17-0.74,2.06-1.368,3.07
		c-3.09,3.88-8.675,5.69-13.478,5.98l-7.432,0.86c-0.666,0.12-1.305,0.37-1.883,0.72c-0.59,0.39-1.168,1.22-1.496,1.84
		c-0.49,0.73-0.94,1.86-0.92,2.77c0.05,0.84-0.22,4.02-0.2,4.77c0.01,0.51,0.1,1.02,0.26,1.51c1.1,3.33,6.7,2.38,9.03,1.81
		c0.73-0.21,1.47-0.41,2.2-0.6c0.45-0.13,0.91-0.18,1.38-0.17c0.31-0.01,0.61,0.1,0.85,0.29c0.94,1.04,1.19,2.08,1.04,3.43
		c0.02,0.87-0.42,1.7-1.15,2.17c-3.37,2.27-6.66,2.05-10.49,2.73c-1.26,0.22-2.4,0.89-3.21,1.9l-0.98,1.07
		c-0.68,0.74-1.06,1.68-1.39,2.61c-0.45,1.17-0.73,2.42-0.81,3.68c-0.62,5.629-3.01,14.62-7.17,18.79
		c-2.57,2.34-7.48,2.141-10.02-0.069c-0.22-0.091-0.32-0.23-0.45-0.431c-0.04-0.16-0.14-0.34-0.12-0.51
		c-0.01-0.13-0.02-0.26-0.04-0.38c-0.03-0.45-0.08-0.9-0.15-1.34c-0.02-0.17,0.01-0.351,0.09-0.5c0.08-0.181,0.15-0.37,0.19-0.561
		c0.03-0.149,0.1-0.279,0.21-0.37c0.33-0.199,0.65-0.399,0.97-0.609c0.2-0.13,0.43-0.21,0.66-0.24c0.41,0.03,0.82,0.021,1.22-0.02
		c2.28-0.591,4.77-4.051,5.65-6.021c0.92-2.05,1.58-4.189,1.98-6.4l1.34-5.37c1.35-4.72-2.1-3.01-4.64-3.82
		c-0.31-0.02-0.59-0.17-0.77-0.41c-0.19-0.24-0.26-0.56-0.19-0.86c0.05-0.78,0.11-1.56,0.18-2.34c0.07-0.34,0.19-0.66,0.35-0.96
		c0.12-0.25,0.32-0.46,0.56-0.58c0.13-0.06,0.27-0.08,0.41-0.09c0.75-0.02,4.21-0.89,4.87-1.25c0.28-0.18,0.51-0.41,0.7-0.67
		c0.44-0.65,0.63-1.66,0.72-2.42l-0.18-8.52c0.01-0.19-0.03-0.39-0.12-0.56c-0.82-1.68-3-1.49-4.48-1.01
		c-1.48,0.81-1.92,1.75-2.85,3.09c-0.11,0.13-0.26,0.23-0.43,0.3c-0.89,0.34-1.9,0.26-2.73-0.22L4.115,20.731z"/>
	
		<path clip-path="url(#SVGID_22_)" fill="none" stroke="#000000" stroke-width="2" stroke-linecap="round" stroke-linejoin="round" stroke-miterlimit="10" d="
		M4.115,20.731c-3.962-3.288-0.342-7.813,2.88-9.335c3.108-1.45,7.82-2.52,11.214-2.8l11.542-1.43l7.177-0.78
		c3.883-0.58,3.48-1.38,5.205-4.44c2.047-2.69,7.548-1.51,6.37,2.61c-0.257,1.17-0.74,2.06-1.368,3.07
		c-3.09,3.88-8.675,5.69-13.478,5.98l-7.432,0.86c-0.666,0.12-1.305,0.37-1.883,0.72c-0.59,0.39-1.168,1.22-1.496,1.84
		c-0.49,0.73-0.94,1.86-0.92,2.77c0.05,0.84-0.22,4.02-0.2,4.77c0.01,0.51,0.1,1.02,0.26,1.51c1.1,3.33,6.7,2.38,9.03,1.81
		c0.73-0.21,1.47-0.41,2.2-0.6c0.45-0.13,0.91-0.18,1.38-0.17c0.31-0.01,0.61,0.1,0.85,0.29c0.94,1.04,1.19,2.08,1.04,3.43
		c0.02,0.87-0.42,1.7-1.15,2.17c-3.37,2.27-6.66,2.05-10.49,2.73c-1.26,0.22-2.4,0.89-3.21,1.9l-0.98,1.07
		c-0.68,0.74-1.06,1.68-1.39,2.61c-0.45,1.17-0.73,2.42-0.81,3.68c-0.62,5.629-3.01,14.62-7.17,18.79
		c-2.57,2.34-7.48,2.141-10.02-0.069c-0.22-0.091-0.32-0.23-0.45-0.431c-0.04-0.16-0.14-0.34-0.12-0.51
		c-0.01-0.13-0.02-0.26-0.04-0.38c-0.03-0.45-0.08-0.9-0.15-1.34c-0.02-0.17,0.01-0.351,0.09-0.5c0.08-0.181,0.15-0.37,0.19-0.561
		c0.03-0.149,0.1-0.279,0.21-0.37c0.33-0.199,0.65-0.399,0.97-0.609c0.2-0.13,0.43-0.21,0.66-0.24c0.41,0.03,0.82,0.021,1.22-0.02
		c2.28-0.591,4.77-4.051,5.65-6.021c0.92-2.05,1.58-4.189,1.98-6.4l1.34-5.37c1.35-4.72-2.1-3.01-4.64-3.82
		c-0.31-0.02-0.59-0.17-0.77-0.41c-0.19-0.24-0.26-0.56-0.19-0.86c0.05-0.78,0.11-1.56,0.18-2.34c0.07-0.34,0.19-0.66,0.35-0.96
		c0.12-0.25,0.32-0.46,0.56-0.58c0.13-0.06,0.27-0.08,0.41-0.09c0.75-0.02,4.21-0.89,4.87-1.25c0.28-0.18,0.51-0.41,0.7-0.67
		c0.44-0.65,0.63-1.66,0.72-2.42l-0.18-8.52c0.01-0.19-0.03-0.39-0.12-0.56c-0.82-1.68-3-1.49-4.48-1.01
		c-1.48,0.81-1.92,1.75-2.85,3.09c-0.11,0.13-0.26,0.23-0.43,0.3c-0.89,0.34-1.9,0.26-2.73-0.22L4.115,20.731z"/>
</g>
</svg>
