<?xml version="1.0" encoding="UTF-8" standalone="no"?>
<svg width="20px" height="20px" viewBox="0 0 20 20" version="1.1" xmlns="http://www.w3.org/2000/svg" xmlns:xlink="http://www.w3.org/1999/xlink" xmlns:sketch="http://www.bohemiancoding.com/sketch/ns">
    <!-- Generator: Sketch 3.2.2 (9983) - http://www.bohemiancoding.com/sketch -->
    <title>pink-radio</title>
    <desc>Created with Sketch.</desc>
    <defs></defs>
    <g id="Input-Assets" stroke="none" stroke-width="1" fill="none" fill-rule="evenodd" sketch:type="MSPage">
        <g id="pink-radio" sketch:type="MSArtboardGroup" fill="#FF008A">
            <path d="M15.0976667,7.0778 L9.75966667,14.9358 C9.59166667,15.1824667 9.323,15.3411333 9.027,15.3691333 C8.995,15.3718 8.96366667,15.3738 8.93233333,15.3738 C8.66833333,15.3738 8.41366667,15.2691333 8.225,15.0804667 L5.023,11.8784667 C4.63233333,11.4878 4.63233333,10.8544667 5.023,10.4644667 C5.41366667,10.0738 6.04633333,10.0738 6.437,10.4644667 L8.78433333,12.8118 L13.443,5.9538 C13.7536667,5.4958 14.3763333,5.37913333 14.8323333,5.68913333 C15.289,5.99913333 15.4076667,6.62113333 15.0976667,7.0778 M10.0003333,-0.0002 C4.477,-0.0002 0.000333333333,4.47713333 0.000333333333,9.9998 C0.000333333333,15.5224667 4.477,19.9998 10.0003333,19.9998 C15.5236667,19.9998 20.0003333,15.5224667 20.0003333,9.9998 C20.0003333,4.47713333 15.5236667,-0.0002 10.0003333,-0.0002" id="Fill-1" sketch:type="MSShapeGroup"></path>
        </g>
    </g>
</svg>