<?xml version="1.0" encoding="UTF-8" standalone="no"?>
<svg width="34px" height="18px" viewBox="0 0 34 18" version="1.1" xmlns="http://www.w3.org/2000/svg" xmlns:xlink="http://www.w3.org/1999/xlink" xmlns:sketch="http://www.bohemiancoding.com/sketch/ns">
    <!-- Generator: Sketch 3.2.2 (9983) - http://www.bohemiancoding.com/sketch -->
    <title>us-flag</title>
    <desc>Created with Sketch.</desc>
    <defs></defs>
    <g id="Utility-Nav" stroke="none" stroke-width="1" fill="none" fill-rule="evenodd" sketch:type="MSPage">
        <g id="us-flag" sketch:type="MSArtboardGroup">
            <path d="M0,2 L33.999,2 L33.999,-0.001 L0,-0.001 L0,2 Z" id="Fill-1" fill="#EB7161" sketch:type="MSShapeGroup"></path>
            <path d="M0,4 L33.999,4 L33.999,2 L0,2 L0,4 Z" id="Fill-2" fill="#FFFFFF" sketch:type="MSShapeGroup"></path>
            <path d="M0,12 L33.999,12 L33.999,10 L0,10 L0,12 Z" id="Fill-3" fill="#FFFFFF" sketch:type="MSShapeGroup"></path>
            <path d="M0,8 L33.999,8 L33.999,6 L0,6 L0,8 Z" id="Fill-4" fill="#FFFFFF" sketch:type="MSShapeGroup"></path>
            <path d="M0,16 L33.999,16 L33.999,14 L0,14 L0,16 Z" id="Fill-5" fill="#FFFFFF" sketch:type="MSShapeGroup"></path>
            <path d="M0,10 L33.999,10 L33.999,7.999 L0,7.999 L0,10 Z" id="Fill-6" fill="#EB7161" sketch:type="MSShapeGroup"></path>
            <path d="M0,6 L33.999,6 L33.999,4 L0,4 L0,6 Z" id="Fill-7" fill="#EB7161" sketch:type="MSShapeGroup"></path>
            <path d="M0,14 L33.999,14 L33.999,12 L0,12 L0,14 Z" id="Fill-8" fill="#EB7161" sketch:type="MSShapeGroup"></path>
            <path d="M0,18 L33.999,18 L33.999,16 L0,16 L0,18 Z" id="Fill-9" fill="#EB7161" sketch:type="MSShapeGroup"></path>
            <path d="M0,10 L15.999,10 L15.999,-0.001 L0,-0.001 L0,10 Z" id="Fill-10" fill="#4174C0" sketch:type="MSShapeGroup"></path>
        </g>
    </g>
</svg>